# This file uses centimeters as units for non-parametric coordinates.

mtllib street lamp.mtl
g default
v 0.309460 0.001557 -0.063698
v 0.235908 0.001557 -0.063698
v 0.235908 0.673288 -0.063698
v 0.309460 0.673288 -0.063698
v 0.199131 0.001557 0.000000
v 0.199131 0.673288 0.000000
v 0.235908 0.001557 0.063698
v 0.235908 0.673288 0.063698
v 0.309460 0.001557 0.063698
v 0.309460 0.673288 0.063698
v 0.346237 0.001557 0.000000
v 0.346237 0.673288 0.000000
v 0.247815 0.807475 -0.043074
v 0.297553 0.807475 -0.043074
v 0.222947 0.807475 0.000000
v 0.247815 0.807475 0.043074
v 0.297553 0.807475 0.043074
v 0.322422 0.807475 0.000000
v 0.247815 3.009341 -0.043074
v 0.297553 3.009341 -0.043074
v 0.222947 3.009341 0.000000
v 0.247815 3.009341 0.043074
v 0.297553 3.009341 0.043074
v 0.322422 3.009341 0.000000
v -0.284329 3.048418 0.241438
v 0.332764 2.994430 0.175042
v 0.305632 3.106533 0.139750
v -0.187040 3.149637 0.192758
v 0.305632 3.106533 -0.139750
v -0.187040 3.149637 -0.192758
v 0.332764 2.994430 -0.175042
v -0.284329 3.048418 -0.241438
v -0.220940 2.970470 -0.177183
v 0.156699 2.937431 -0.128457
v 0.156699 2.937431 0.128457
v -0.220940 2.970470 0.177183
v 0.213358 3.005344 -0.162699
v -0.264945 3.047190 -0.224412
v 0.213358 3.005344 0.162699
v -0.264945 3.047190 0.224412
vt 0.978294 0.478585
vt 0.979021 0.539484
vt 0.680740 0.538885
vt 0.680081 0.483567
vt 0.978484 0.600380
vt 0.680255 0.594204
vt 0.976773 0.660865
vt 0.678428 0.650271
vt 0.975311 0.720639
vt 0.674608 0.707683
vt 0.974744 0.358313
vt 0.976394 0.418094
vt 0.678080 0.427491
vt 0.674081 0.370060
vt 0.620637 0.538767
vt 0.620174 0.491454
vt 0.620322 0.586076
vt 0.618989 0.631594
vt 0.614824 0.672944
vt 0.618699 0.445932
vt 0.614405 0.404561
vt 0.988389 0.813606
vt 0.987587 0.853812
vt 0.016165 0.853600
vt 0.015660 0.813482
vt 0.988092 0.893930
vt 0.016671 0.893804
vt 0.988600 0.934029
vt 0.017181 0.934024
vt 0.989109 0.974175
vt 0.017690 0.974200
vt 0.987370 0.733209
vt 0.987880 0.773386
vt 0.015152 0.773382
vt 0.017239 0.733236
vt 0.538148 0.615390
vt 0.491379 0.615248
vt 0.468117 0.574676
vt 0.491625 0.534245
vt 0.561654 0.574957
vt 0.538392 0.534386
vt 0.537215 0.431716
vt 0.553027 0.459103
vt 0.489778 0.459104
vt 0.505590 0.431716
vt 0.537217 0.486491
vt 0.505591 0.486493
vt 0.940577 0.320210
vt 0.587910 0.289190
vt 0.613545 0.236946
vt 0.895100 0.261732
vt 0.613597 0.106476
vt 0.895173 0.081783
vt 0.587987 0.054240
vt 0.940665 0.023303
vt 0.420402 0.078236
vt 0.125029 0.108496
vt 0.126665 0.252211
vt 0.422681 0.278610
vt 0.547868 0.253397
vt 0.547943 0.089985
vt 0.975128 0.059088
vt 0.975004 0.284485
vt 0.940665 0.023303
vt 0.562107 0.056438
vt 0.635232 0.073159
vt 0.929725 0.037134
vt 0.562944 0.287018
vt 0.635995 0.271509
vt 0.940577 0.320210
vt 0.929154 0.305976
vt 0.486213 0.026959
vt 0.060847 0.068873
vt 0.063333 0.297925
vt 0.489565 0.329213
vn -0.000000 0.000000 -1.000000
vn -0.000000 0.000000 -1.000000
vn -0.000000 0.000000 -1.000000
vn -0.000000 0.000000 -1.000000
vn -0.866019 0.000000 -0.500011
vn -0.866019 0.000000 -0.500011
vn -0.866019 0.000000 -0.500011
vn -0.866019 0.000000 -0.500011
vn -0.866019 0.000000 0.500011
vn -0.866019 0.000000 0.500011
vn -0.866019 0.000000 0.500011
vn -0.866019 0.000000 0.500011
vn 0.000000 0.000000 1.000000
vn 0.000000 0.000000 1.000000
vn 0.000000 0.000000 1.000000
vn 0.000000 0.000000 1.000000
vn 0.866020 -0.000000 0.500009
vn 0.866020 -0.000000 0.500009
vn 0.866020 -0.000000 0.500009
vn 0.866020 -0.000000 0.500009
vn 0.866020 -0.000000 -0.500009
vn 0.866020 -0.000000 -0.500009
vn 0.866020 -0.000000 -0.500009
vn 0.866020 -0.000000 -0.500009
vn 0.000000 0.151912 -0.988394
vn 0.000000 0.151912 -0.988394
vn 0.000000 0.151912 -0.988394
vn 0.000000 0.151912 -0.988394
vn -0.855973 0.151916 -0.494198
vn -0.855973 0.151916 -0.494198
vn -0.855973 0.151916 -0.494198
vn -0.855973 0.151916 -0.494198
vn -0.855973 0.151916 0.494198
vn -0.855973 0.151916 0.494198
vn -0.855973 0.151916 0.494198
vn -0.855973 0.151916 0.494198
vn -0.000000 0.151912 0.988394
vn -0.000000 0.151912 0.988394
vn -0.000000 0.151912 0.988394
vn -0.000000 0.151912 0.988394
vn 0.855970 0.151913 0.494204
vn 0.855970 0.151913 0.494204
vn 0.855970 0.151913 0.494204
vn 0.855970 0.151913 0.494204
vn 0.855970 0.151913 -0.494204
vn 0.855970 0.151913 -0.494204
vn 0.855970 0.151913 -0.494204
vn 0.855970 0.151913 -0.494204
vn -0.000000 0.000000 -1.000000
vn -0.000000 0.000000 -1.000000
vn -0.000000 0.000000 -1.000000
vn -0.000000 0.000000 -1.000000
vn -0.866032 0.000000 -0.499988
vn -0.866032 0.000000 -0.499988
vn -0.866032 0.000000 -0.499988
vn -0.866032 0.000000 -0.499988
vn -0.866032 0.000000 0.499988
vn -0.866032 0.000000 0.499988
vn -0.866032 0.000000 0.499988
vn -0.866032 0.000000 0.499988
vn 0.000000 0.000000 1.000000
vn 0.000000 0.000000 1.000000
vn 0.000000 0.000000 1.000000
vn 0.000000 0.000000 1.000000
vn 0.866024 -0.000000 0.500003
vn 0.866024 -0.000000 0.500003
vn 0.866024 -0.000000 0.500003
vn 0.866024 -0.000000 0.500003
vn 0.866024 -0.000000 -0.500003
vn 0.866024 -0.000000 -0.500003
vn 0.866024 -0.000000 -0.500003
vn 0.866024 -0.000000 -0.500003
vn 0.000000 -1.000000 0.000000
vn 0.000000 -1.000000 0.000000
vn 0.000000 -1.000000 0.000000
vn 0.000000 -1.000000 0.000000
vn 0.000000 -1.000000 0.000000
vn 0.000000 -1.000000 0.000000
vn 0.000000 -1.000000 0.000000
vn 0.000000 -1.000000 0.000000
vn 0.000000 1.000000 -0.000000
vn 0.000000 1.000000 -0.000000
vn 0.000000 1.000000 -0.000000
vn 0.000000 1.000000 -0.000000
vn 0.000000 1.000000 0.000001
vn 0.000000 1.000000 0.000001
vn 0.000000 1.000000 0.000001
vn 0.000000 1.000000 0.000001
vn 0.129287 0.326105 0.936451
vn 0.129287 0.326105 0.936451
vn 0.129287 0.326105 0.936451
vn 0.129287 0.326105 0.936451
vn 0.087157 0.996195 -0.000000
vn 0.087157 0.996195 -0.000000
vn 0.087157 0.996195 -0.000000
vn 0.087157 0.996195 -0.000000
vn 0.129287 0.326105 -0.936451
vn 0.129287 0.326105 -0.936451
vn 0.129287 0.326105 -0.936451
vn 0.129287 0.326105 -0.936451
vn -0.087156 -0.996195 -0.000000
vn -0.087156 -0.996195 -0.000000
vn -0.087156 -0.996195 -0.000000
vn -0.087156 -0.996195 -0.000000
vn 0.971938 0.235236 -0.000000
vn 0.971938 0.235236 -0.000000
vn 0.971938 0.235236 -0.000000
vn 0.971938 0.235236 -0.000000
vn -0.720965 0.692972 -0.000000
vn -0.720965 0.692972 -0.000000
vn -0.720965 0.692972 -0.000000
vn -0.720965 0.692972 -0.000000
vn -0.089764 -0.995705 0.022680
vn -0.089764 -0.995705 0.022680
vn -0.089764 -0.995705 0.022680
vn -0.089764 -0.995705 0.022680
vn -0.091022 -0.995849 -0.000000
vn -0.091022 -0.995849 -0.000000
vn -0.091022 -0.995849 -0.000000
vn -0.091022 -0.995849 -0.000000
vn -0.089764 -0.995705 -0.022677
vn -0.089764 -0.995705 -0.022677
vn -0.089764 -0.995705 -0.022677
vn -0.089764 -0.995705 -0.022677
vn -0.063217 -0.998000 -0.000000
vn -0.063217 -0.998000 -0.000000
vn -0.063217 -0.998000 -0.000000
vn -0.063217 -0.998000 -0.000000
vn 0.068585 -0.494180 -0.866650
vn 0.068585 -0.494180 -0.866650
vn 0.068585 -0.494180 -0.866650
vn 0.068585 -0.494180 -0.866650
vn 0.767860 -0.640618 -0.000000
vn 0.767860 -0.640618 -0.000000
vn 0.767860 -0.640618 -0.000000
vn 0.767860 -0.640618 -0.000000
vn 0.068585 -0.494180 0.866650
vn 0.068585 -0.494180 0.866650
vn 0.068585 -0.494180 0.866650
vn 0.068585 -0.494180 0.866650
vn -0.867438 -0.497545 -0.000000
vn -0.867438 -0.497545 -0.000000
vn -0.867438 -0.497545 -0.000000
vn -0.867438 -0.497545 -0.000000
s off
g street_lamp
usemtl blinn1SG
f 1/1/1 2/2/2 3/3/3 4/4/4
f 2/2/5 5/5/6 6/6/7 3/3/8
f 5/5/9 7/7/10 8/8/11 6/6/12
f 7/7/13 9/9/14 10/10/15 8/8/16
f 9/11/17 11/12/18 12/13/19 10/14/20
f 11/12/21 1/1/22 4/4/23 12/13/24
f 4/4/25 3/3/26 13/15/27 14/16/28
f 3/3/29 6/6/30 15/17/31 13/15/32
f 6/6/33 8/8/34 16/18/35 15/17/36
f 8/8/37 10/10/38 17/19/39 16/18/40
f 10/14/41 12/13/42 18/20/43 17/21/44
f 12/13/45 4/4/46 14/16/47 18/20/48
f 14/22/49 13/23/50 19/24/51 20/25/52
f 13/23/53 15/26/54 21/27/55 19/24/56
f 15/26/57 16/28/58 22/29/59 21/27/60
f 16/28/61 17/30/62 23/31/63 22/29/64
f 17/32/65 18/33/66 24/34/67 23/35/68
f 18/33/69 14/22/70 20/25/71 24/34/72
f 9/36/73 7/37/74 5/38/75 2/39/76
f 11/40/77 9/36/78 2/39/79 1/41/80
f 19/42/81 21/43/82 24/44/83 20/45/84
f 21/43/85 22/46/86 23/47/87 24/44/88
f 25/48/89 26/49/90 27/50/91 28/51/92
f 28/51/93 27/50/94 29/52/95 30/53/96
f 30/53/97 29/52/98 31/54/99 32/55/100
f 33/56/101 34/57/102 35/58/103 36/59/104
f 26/60/105 31/61/106 29/52/107 27/50/108
f 32/62/109 25/63/110 28/51/111 30/53/112
f 32/64/113 31/65/114 37/66/115 38/67/116
f 31/65/117 26/68/118 39/69/119 37/66/120
f 26/68/121 25/70/122 40/71/123 39/69/124
f 25/70/125 32/64/126 38/67/127 40/71/128
f 38/72/129 37/73/130 34/57/131 33/56/132
f 37/73/133 39/74/134 35/58/135 34/57/136
f 39/74/137 40/75/138 36/59/139 35/58/140
f 40/75/141 38/72/142 33/56/143 36/59/144
